<svg xmlns="http://www.w3.org/2000/svg" width="150" height="125"><g fill="none" fill-rule="nonzero">
<path 
fill="%23111512" 
d="M77.6 0v3.7l-.1 2-1.2-1.1C74.9 3 74.7 3 74.8 4c0 .4.5 1.3 1.2 2 1 1.2 1.2 1.6 1.3 3.2 0 1.2 0 1.7-.3 1.6-.2-.1-.3-.4-.3-.7 0-.2-.2-.4-.3-.4-.2 0-.4-.6-.4-1.3 0-1.4-.8-2.4-1.3-1.6-.1.2-.2.6-.1.8.1.5-.8.2-1.4-.4-.2-.3-.6-.4-.8-.4-1 0-.8.9.3 2 1.2 1.5 1.3 1.8.5 2-.4.1-.6.4-.5.8.2.7 1 .8 1.7.2.4-.4.4-.4.5.8 0 1 0 1-1.1.4-1-.6-1.3-.6-1.3.2 0 .3.5 1 1 1.4.8.6 1 .8.4.6-.4 0-.7 0-.9.4-.2.7-.5.6-2.6-.8-1-.6-2-1.2-2.3-1-.6.2-.2 1.4.7 2l1 .4-.9.1c-.5 0-1 .3-1 .6-.2.4.6.9 1 .6.3 0 .4 0 .4.2s.2.3.6.3c.4 0 .4.1 0 .2-.3.2-.2.3.4.8l.7.5-1.3.3c-1.4.2-1.7.7-1 1.4.4.3.7.3 1 0 .7-.3 1.8 0 1.8.4 0 .1.3.3.7.3.3 0 .6-.2.6-.4 0-.1.4-.3.7-.3h.8l-.8.7c-.6.5-.7.7-.4 1 .5.2 1.3 0 1.8-.5v.5c-.1.7 0 .9.5.9.3 0 .6-.2.7-.4 0-.3 0-.3.2 0 0 .4.3.3.6-.3l.4-.8.4 1c.2.4.3 1 .1 1a9 9 0 0 1-2.5.4c-2.2.1-2.5 0-3.9-.9s-2.4-1-2.4-.3c0 .1.4.5.9.8l.8.5-1-.2c-1.2-.2-3-1.2-3.9-2-.2-.2-.7-.4-1-.4-.7 0-.9.6-.3 1.1.1.2-.3.4-1.4.4-.9 0-1.8.2-2 .3-1 .6 1.6 1.8 3.5 1.6l1.3-.2-.9.5c-.5.3-.9.7-.8 1 .2.8 1.6.6 2.4-.4.5-.5 1-.8 1.3-.7.5.1.4.2-.3.5-1 .4-1.4 1-.7 1.2.3.1.4.4.3.6 0 .3 0 .5.3.6h.5c0-.3 1-.8 1.8-.9.2 0 .7-.3 1-.6.4-.4.7-.5.7-.4 0 .3-.7 1-1.5 1.4l-.7.7c0 .7 1 .7 1.6.2.6-.5.6-.5.4.1-.2 1 .4.9 1-.1.5-.7.7-.8.9-.4.2.3.3.3.5 0s.6-.4 1-.4c1.2.2 3-1 3-2 0-.7 0-.6.2 0 .2.7 0 1-.9 1.9-.6.6-2 1.5-3.1 2l-2 1.1-1.5-.8a14 14 0 0 0-2-.8c-.6-.1-.5.5.2 1.3.5.6.5.6 0 .2-.3-.2-.7-.3-.8-.2-.2 0-.7 0-1.2-.3-1.2-.6-1.6-.6-1.4 0 .2.5 0 .6-.7.6l-1.2-.2c-.4-.4-1.4.2-1.4.8 0 .5.2.6.7.5.6-.2.6-.2 0 .4-.5.6-.4.7.8.6.6 0 .7.1.5.5-.1.5 0 .6.6.4.7-.1.8 0 .7.5-.2.6 0 .7.8.3.8-.5 1.8.9 1.2 1.5-.4.3-.5.3-.7 0 0-.3-.6-.5-1.3-.5-.6 0-1 0-.9.2 0 .2-.1.2-.5.1-.8-.2-.8.3 0 .8.4.2.5.6.4 1.2-.2 1-.2 1-1.4 0l-1.4-.8c-.5 0-.6.2-.2 1 .4.6.2.6-2.3.1-.8-.1-1.2 0-1.2.1 0 .4 1.7 1.4 2.5 1.4.4 0 .4 0 .1.4-.3.4-.3.6 0 .7.3.1.7.2.8.1.7-.1 1.1 0 1 .5 0 .2.3.3.9.3.6 0 .8.2.8.7 0 .6 0 .6.7-.1.5-.6.6-.7.6-.2 0 .3.2.4.3.3.2-.1.5.2.7.6.1.5.5 1 .8 1 .2.1.5.4.5.7 0 .2.2.4.5.4s.7.3 1 .6c.3.5.4.5 1-.1l.8-.6-.5.6c-.4.5-1.4 1-2.8 1.2-2.8.7-3.5.7-4.7 0-1-.8-1.6-.6-1.3.3.2.5 0 .6-.7.6-.5 0-1-.1-1.2-.3-.3-.2-.6-.2-1 .1-.6.4-.6.5.4 1 .8.5 1 .8.9 1.2-.1.4 0 .6.2.5 1 0 1.3 0 1.1.5-.3.8 1 1.2 1.8.6.6-.4.7-.4.4 0-.6.6 0 1.3.8 1 1.2-.3 1.5.3.4.7-1.6.6-3.1.6-3.7 0-.6-.6-1.6-.6-1.4 0 .2.4 0 .4-1.2.3-1.7-.3-2 .3-.4.8.8.3 1 .6 1 1-.2.6.8 1 1.6.6.4-.3.5-.2.5.5 0 .6.2.7.7.6.6-.2.7-.1.5.4-.2.4 0 .5.4.4h.7c0 .6.7.4 1.5-.5 1-1.1 1.7-1.4 2.4-1 1 .5.7.8-.4.7-1-.2-1.2.3-.4 1.4.4.7.4.7-.2.7-.3 0-.8.3-1.1.5-.3.3-.7.5-1 .5-.2 0-.5.1-.6.3-.1.2-.8.3-1.5.3s-1.4 0-1.6.2c-.3.2-1 .3-1.5.2-.9 0-1 0-1.1.7-.1.5-.4.7-1 .7l-1 .2h-1c-.2 0-.5 0-.5.2 0 .4 1.8 1.4 2.6 1.4.7 0 .7 0 .1.6-.5.7-.5.7.3.7.6 0 .8 0 .6.5-.1.4 0 .4.8.2l1-.2c1 0 1.3.2 1.1.5-.3 1 .5.9 1 0 .5-.8.5-.8.5-.1 0 .3.1.7.3.7 2 .3 2.3.2 2.6-.8l.4-1 .3.8.3.8.6-.8c.7-.8.6-.8.7 0 0 .9.5.8.8-.2.1-.4.3-.8.5-.8s.2.2 0 .4c0 .2.2.3 1 .1.7-.1 1-.1.8.2-.2.6-2.2 1.6-3.2 1.6-.5 0-.9.2-1 .4 0 .2-.7.4-1.6.4-.8 0-1.5 0-1.5.2 0 .6 1.1 1.3 2 1.2.5 0 1 0 1 .2 0 .5-1.8.8-6.4 1-5.1.2-7.2.4-7.2.8 0 0-.4.1-.8 0-.5 0-.8 0-.8.2 0 .5 1 1 1.9 1 .3 0 .7.2.7.4s-.2.3-.4.3-.6.3-1 .7l-.7.7 1-.2c.7 0 1 0 1 .3 0 .2.3.3.7.2.4-.1.6 0 .6.2 0 .5.9.4 1.3-.1.2-.3.6-.5.7-.5.2 0 .1.2-.1.6-.3.3-.6.6-.6.8 0 .3 1.2.2 1.5-.1.3-.5.7-.4 1 .3.2.8.6.8 1.7 0l1-.7-.2 1c-.3 1.2.3 1.3 1.6.3.9-.7.9-.7.5 0s-.2 1 .5.8c.3-.1.7 0 1 .2.3.3.4.3.4 0 0-.2.2-.3.5-.3s.5.2.5.4c0 .3.3.5.9.4 3.3-.4-1 1.5-4.9 2.2-2.5.4-2.8.4-3.6-.2l-1.3-.6c-.7 0-.5.7.3 1 .5.2.3.2-.7 0l-2.3-.1-2.4-.4c-.8-.3-1.6-.4-1.7-.4-.3.4 1.8 1.7 3 1.9l1.3.2h-1.2c-.9 0-1.2.2-1.2.6 0 .2.2.5.5.5l1 .1.7.1c.3 0 .3.2-.2.5-.8.6-.4 1 .5.5.6-.3.7-.2.7.2s.2.5 1 .4l1.7-.4c.6-.2.6-.2 0 .3s-.5.6.6.5c.3 0 .5.2.5.4 0 .7.3.7 1-.2l.7-.7-.5.9-.5 1.2c0 .5 1.6.1 2.3-.6.6-.5.6-.5.4.3-.3 1-.7 1.3-3.7 2.2-2.5.7-2.6.7-4 .2-1.4-.5-3.4-.7-3.4-.3l.4.7c.3.3-.2.2-1.3-.1-1-.3-2-.4-2.2-.3-.4.1-.4.3.2 1l.8.7-1.1-.3c-1.4-.4-3.1-.4-3.4 0-.2.4 2 1.3 3.2 1.3h1l-1 .8c-.9.7-.8 1.7 0 1.3.4-.1.5.1.5.6 0 .6.2.8.6.8.4 0 .9.3 1.2.5.4.4.6.4 1.1.1.4-.2.7-.5.7-.6 0-.2.2 0 .5.3.7.6.8 1.3.4 1.3-.2 0-.2.2-.1.4s0 .3-.8.1c-.6-.1-1 0-1 .2s-.6.3-1.4.3c-1.5 0-1.8.3-1 1 .3.2 1 .3 2 .2l1.5-.2-1.2.6c-.8.5-1.1.8-1 1.2.2.3.4.4.7.2l1-.3c.3 0 .4 0 .1.1-.8.3-.4.8.5.6.6-.1.8-.1.4.1-.8.6 0 .7 1 .2.5-.3 1-.4 1-.2s-.2.4-.5.5c-.2 0-.3.2-.1.4.1.1.7 0 1.2-.1.7-.3.9-.3.7 0-.1.4 0 .5.4.3.5-.2.6-.1.2.3-.3.3-1.4.4-5 .3-2.8 0-4.7 0-4.7.3 0 .1.3.3.5.3.3 0 .7.2 1 .4.4.4.4.5 0 .7l-1.6.2c-1.2 0-2 .4-1.7.9.4.5 2 .6 3.3.2 1.7-.6 1.8-.6 1 .3-1.2 1.1-1.1 1.8 0 1.5l1.4-.5c.2-.1.3 0 .3.4l.1 1 .3.5c.2.3 2.2-.8 2.2-1.2 0-.2.1-.2.3 0 .2 0 .2.4 0 1l-.3 1c0 .5 1.5-.6 3-2.1 1.2-1.2 1.3-1 .3.2-.3.3-.4.8-.3 1.1.2.5.3.5 1-.2l.9-.8-.2.9c0 .7-.3.8-2.6 1.2-1.7.2-2.8.3-3.1 0-.8-.4-2.6-.7-2.6-.3 0 .1.3.4.6.4h-1c-1.3 0-1.6 0-1.2.3.6.6.4.8-.4.7-1-.2-2.5.1-2.3.6.1.1.5.3 1 .3 1.3 0 1.1.4-.6 1-2.8 1.2-2.2 2 .7 1 1.5-.5 2.1-.4 1 .2-.4.2-.6.6-.6.9 0 .3.1.4.8.2.8-.1.8-.1.4.3-.8 1 .1 1 1.5 0 .7-.5.7-.4.5.3-.1.6 0 .7.4.3.5-.4.5-.4.3.1-.2.6-.1.5.6 0 .8-.8 1.3-.8 1 0-.2.7.5.6 1.8-.2.5-.3 1-.4 1-.2s.3.2.9.1c.6-.1.7-.1.4.1-.3.2-1.3.4-2.3.6-2 .5-2.7.8-2.4 1.4.2.3.7.3 2.6-.2.5-.2.4 0-.4.8-.6.6-1 1-1 1.2 0 .3 1.7-.1 2.8-.7 1-.6 1.3-.4.5.6-.6.9-.6 1.3.2 1 .4 0 .6 0 .6.3 0 .6.3.6 1 0s.7-.6.6 0c-.2 1 1.6.7 2.5-.4l.8-.9-.2 1c-.3 1.5.5 1.5 1.8.2.4-.6.9-1 1-1l.1.8c0 1.3.6 1.6 1.3.8.5-.6.6-.6 1 0 .4.4.4.4.6-.2.1-.4.4-.7.6-.6.3.1.5-.1.7-.6.1-.6.3-.8.4-.5l1 .5c.5 0 .8-.2 1.3-1.3.7-1.5 1.5-2 1.1-.8-.2.7 0 .8 1 0 .4-.2.8-.7.8-1.1 0-.6 0-.6.2-.1.2.9.7.2.7-1 0-1 .1-1.1.4-.6.2.3.6.5 1 .5.6 0 .6.1.4 2.5-.1 1.7-.5 3-1 4a29 29 0 0 0-.7 1.5h8c.4-.3.2-.8-.2-1.7-.5-1.3-.7-4.1-.3-4.3.2 0 .6.4.9.9.6 1 1.3 1.4 1 .5-.4-1 .2-.5.6.6.4.8.6 1 1.2 1 .4 0 1 .1 1.2.3.4.2.5.2.6 0 .1-.3.4-.2.8.2.8.8 1.2.8 1-.1 0-.4 0-.6.1-.4.4.5 1.4.8 1.4.5 0-.3 1.8-.2 2.7.2.5.2.6.1.4-.3 0-.3 0-.6.2-.7.3 0 .3-.2 0-.5-.7-.8-.4-1 .8-.3 1.3.7 1.7.6 1-.3-.3-.4-.3-.5 0-.2.3.2.6.3.9.2.2 0 .4 0 .4.2l.5.9c.4.5.5.5 1 .1.4-.3.6-.3 1 .4l.5.7.3-.8c.3-.7.3-.7.7-.2.5.7.8.7 1.4 0 .4-.3.4-.5 0-.9-.1-.2-.2-.4 0-.4l-.2-.8c-.4-.6-.2-.5.7.3 2 1.8 2.1 1.9 2.7 1.3.2-.3.4-.7.2-1-.1-.2 0-.1.4.2 1.7 1.3 3.4 1.6 2.3.3-.5-.6-.5-.6.3-.8l.9-.2-1-.8c-1.2-1-.5-1 1.2 0a7 7 0 0 0 1.8.8c.7 0 .5-.5-.3-.9-.6-.3-.6-.3.6-.4a4 4 0 0 0 2-.4c.5-.5.5-.5-.4-.5-1.4 0-6.3-1-7.3-1.4-1.3-.5-1.5-1.3-.3-.8 1.1.4 1.7 0 .9-.5-.5-.3-.3-.4.9-.3 1.6.1 1.9-.3.7-.8-.6-.4-.5-.4.9-.3 1.8 0 2.3-.5.7-1l-1-.2 1-.1c1.3-.2 1.4-.5.4-1-.6-.3-.4-.4 1.3-.2 2 .1 2 .1 1.5-.3-.4-.3-.9-.5-1.2-.5-.3 0-.7-.2-.8-.4-.1-.2 0-.3.6-.3 1.3.1 2.2 0 2.2-.3l-2.3-.5c-1.2 0-2.2-.3-2-.4 0-.2 1-.5 2-.7 2-.5 3.2-1.1 2.8-1.5-.2-.2-2 0-4.4.7-.7.2-.7.2.3-.7 1.7-1.4.7-1.6-1.7-.3s-3.7 1.4-6.4.5c-3-1-7.9-3.5-8.2-4.2-.5-.8-.2-.8.6.1.3.4.6.6.6.4 0-.1.3 0 .5.2.4.3.5.3.5-.2s.2-.4 1 .4l1 1-.2-1.1c-.2-1-.2-1 .7-.7l1.4.8c1.2 1 1.3.9 1.1-.2-.2-.9-.1-1 .2-.7.5.5 1.9.5 1.9-.1s.5-.6.8 0l1.2 1c.7.4.9.4.9 0 0-.2-.3-.7-.7-1-.3-.3-.6-.8-.6-1 0-.1 0-.2.2 0 0 0 .4 0 .7-.4.3-.3.8-.4 1.7-.3.8.1 1.2 0 1.3-.3.2-.3.5-.3 1.3-.1 2.8.8 3.3-.1.6-1.1-1.9-.7-2-1-.4-.5 2.2.6 5.1.1 3.9-.7a5 5 0 0 0-2-.3c-1.2 0-1.2 0-.5-.3.6 0 1-.4 1.1-.6.2-.4-.3-.4-3-.2-3.3.2-3.3.2-3-.5.6-.9.2-1-1.4-.5a7 7 0 0 1-2.8.3c-1.9-.2-8-2.3-8.7-3-.8-.6-.7-1 0-.8.4.1.7 0 .7-.1 0-.4.5-.3 2 .4.6.3 1.8.4 2.7.5h1.9c.8.2.8 0 .3-.7-.4-.5-.3-.4.3.1 1.2 1 1.5 1.1 1.5.4 0-.4 0-.4.8 0 .5.4 1 .5 1 .3l1.2-.7c1-.4 1-.4.4-.9-.8-.5-.6-.5.6-.1.6.2.8.2.8-.1 0-.3.8-.6 2-.9 1.2-.2 2.2-.5 2.2-.7 0-.1.1-.2.3 0 .1 0 .5 0 .9-.2.4-.3.4-.3-.4-.5-.6-.2-.8-.4-.7-.8.2-.5 0-.6-.5-.7-.6 0-.2-.3 1.2-.8 2.2-.7 2.8-1.3.8-1-1.7.4-6.1.5-6.1.2 0-.2.1-.3.3-.3.2 0 .3-.1.3-.3 0-.2-.7-.3-1.5-.3-2.1 0-5.5-.7-5.7-1.2-.1-.3 0-.4.6-.4.5 0 .8-.2.8-.3 0-.2.2-.3.5-.2.3.1.5 0 .5-.2s.2-.2.7.2c.4.2 1 .5 1.5.5h.8l-.7-.7-.7-.6h1.5l1.5-.2-1-.5-1.2-.6h1c.6 0 1.2-.3 1.7-.8l1.1-.8c.2 0 .6-.3.8-.7.6-.9-.2-1-2-.5-2 .7-2.4.7-2.2 0 .2-.9.1-.9-1.9-.2-1.5.5-1.7.5-4.1-.2-3.3-1-4.2-1.8-1.6-1.7.2 0 .5-.1.7-.3.1-.3.4-.2.8.2.5.4 1 .5 2 .3 1.4-.2 1.5-.3.7-1-.6-.5-.3-.5 1 .1.5.2.6.1.5-.3-.2-.4 0-.5.4-.5.5 0 .6-.2.5-.5 0-.2 0-.5.2-.6.3-.1.2-.3-.1-.6-.5-.4-.5-.5.2-1.2 1.2-1.1 1-1.3-.7-.8-4.3 1.4-5.8 1.4-6.8.3-.6-.6-.7-.8-.3-.9.3-.1 1 0 1.5.2 1.3.5 1.6 0 .5-1-.8-.6-.9-.7-.3-.7 1.1.1 1.7 0 1.7-.3 0-.2-.2-.4-.5-.4-.5 0-.5 0 0-.3.5-.1.9-.5 1-.8.1-.4 0-.4-.5 0-1.2.6-7.9.5-9.3-.2-1-.5-1-.5-.3-.6.6 0 .7-.1.5-.6-.1-.7 0-.7.4-.3.7.6 1.7 1 1.7.6 0-.1.3-.2.6-.1.4.1.7 0 .7-.2s.3-.3.8-.3c1 0 1-.4-.3-1.4l-1-.8 1.7.3c1.8.2 2.4.1 2.1-.4-.3-.6.5-1.3 1.5-1.3 1.1 0 1.3-.5.2-.7-.4-.1-.2-.2.4-.1.7 0 1.1-.1 1-.4 0-.2.1-.4.3-.4.3 0 .3-.1 0-.5-.3-.3-.7-.4-1.3-.3h-.4c.8-.3.4-.9-.4-.7-.6.2-.7.1-.6-.3.2-.4.1-.5-.2-.3-.2.2-.8.3-1.3.4-.4 0-1.1.1-1.6.3l-.8.2.9-.8c1-.9 1.2-1.4.3-.9-1 .5-1.6.5-1 0 .6-.8.3-1.3-.4-.6-.4.3-1.1.8-1.7 1-2 1-7.2-.3-7.2-1.7l-.4-.9c-.3-.2-.3-.3 0-.3l.5.4c0 .3.6.5 1.2.5s1.4 0 1.8.2c.6.2.7 0 .7-.5v-.6l1.1.6c.8.5 1.2.6 1.3.3.2-.2 0-.5-.2-.7-.4-.2 1.5-.2 2.8 0h1c.7-.3.7-.4.3-.9-.5-.5-.5-.6.3-.8 1-.2 1.1-.8.2-.8-.3 0-.2-.2.4-.5.6-.2 1.4-.8 2-1.2l.9-.8-1.2-.2c-.6-.1-1.2-.3-1.2-.5s-.3-.2-.9-.1c-.7.2-.8.1-.4-.3.6-.7-.3-1-1.3-.3-.4.3-1.4.5-2.3.6-1.3 0-1.5 0-1-.3.7-.3.8-.6.5-1.8l-1.1.6c-.6.3-1.6.6-2.2.6-2 0-5.4-1.3-7.6-3-.9-.6-.7-.7.3-.2.5.3.6.3.6-.2 0-.6 0-.6.4 0 .1.3.4.5.6.4.1-.1.6 0 1 .3.9.6.9.5.9-.4 0-.5.1-.7.2-.5.3.4 1.5 1 2 1 .2 0 .4-.3.4-.7 0-.6 0-.6.3.1 0 .5.2.8.3.7.1 0 .5 0 .8.2.6.3.8.3 1.1-.2.3-.4.6-.6.8-.5v-.6c-.2-.8-.2-.9.7-.5 1 .4 1.4.2.8-.5-.3-.4-.3-.5.2-.5s.5 0 0-.6c-.3-.4-.4-.7-.3-.8.2-.1.6 0 .9.4.5.6.8.6 2 .4l-.2-.5c-.4-.5-.2-.8.6-.8.3 0 1-.3 1.3-.7l.8-.6h-2.7c-.7 0-.8 0-.4-.5.7-.8.2-.8-1 0-1.4 1-2.2 1-1.5.3.3-.4.3-.4-.2-.3-.6.3-.7-.2-.1-.7.8-.9 0-.7-1 .1-2 1.7-2.3 1.7-4.6 1-2.3-.6-4-1.5-4.4-2.4-.3-.6-.2-.7.5-.6.4 0 .8.3 1 .5 0 .3.4.5.8.6.5 0 .6-.1.5-.7-.2-.6-.1-.6.5.2.4.5 1.1.9 1.5.9.6 0 .7-.1.5-1-.2-1.2.5-1.5 1.3-.5.6.6 2.4 1.1 2.4.6l-1-1.1c-.9-.7-1-.9-.5-.9.3 0 .6.2.7.5.1.2.3.4.5.3.1-.1.3 0 .4.1.1.2.6.4 1 .4.9 0 .9 0 .3-.5-.6-.4-.6-.5.3-.8l1.3-.3c.2 0 0-.3-.4-.5-.8-.4-.8-.4.4-.3.8 0 1.4 0 1.7-.4.7-.7.2-1-1.4-1-.9 0-1.4-.2-1.2-.4.4-.7-.8-.7-2.1 0-1.7.8-2 .8-1.7.2 0-.3 0-.5-.4-.5-.3 0-.4-.2-.3-.5.2-.6.1-.6-1-.2-.6.3-.7.2-.6-.3.2-.7-.3-.9-.7-.3-.1.2-.8.6-1.5 1-1.2.6-1.5.6-2.6.3-1-.3-1.2-.5-.8-.7.3-.2.6-.5.6-.8 0-.4-.3-.5-1.5-.4-1 0-1.6 0-2-.6-.7-.7-1.4-3.2-1-3.5.3-.2.4.5.3 1.4 0 .2.3.9.7 1.4.5.8.8.9 1.1.6.3-.2.5-.8.5-1.2 0-.7 0-.7.2-.2.2 1 1 1.7 2 1.7.6 0 .6 0 .3-.6-.4-.8-.4-1 0-.8.2 0 .4 0 .4-.2 0-.1.1-.3.3-.3.2 0 .3.2.3.5 0 .5 1.9 2.1 2.3 1.9.1-.1.3-.5.3-.8 0-.4.1-.6.3-.6.2 0 .3-.2.1-.4 0-.3.1-.1.4.3.4.4.7.6.9.5a2 2 0 0 1 1-.3c.8-.2 2-.8 2-1.1 0-.1-.3-.4-.9-.6-.5-.3-.9-.6-.9-.8 0-.2-.3-.4-.9-.4-1 0-2.7-.8-2.1-1 .2 0 .4-.4.4-.6 0-.5-1.6-.6-2.1-.2-.5.5-1.8.8-1.8.4 0-.1.4-.4.9-.5.6-.1.7-.3.4-.7-.3-.3-.3-.4.2-.4.7 0 2-.9 1.7-1.2-.2 0-1-.3-1.7-.3-1.6-.2-1.6-.2-1.1-1.1.3-.6.3-.6 1-.1.8.4.8.4 1-.2.1-.4.4-.6.5-.5.2.1.3 0 .3-.1 0-.2.3-.4.7-.4.3 0 .6-.2.6-.4 0-.5-.6-.9-1.6-.9-.7 0-.8-.5-.1-.8.2-.1.4-.3.3-.4-.1-.2.2-.5.6-.7 1.1-.6.9-1.1-.5-1.1H87l.9-1c.6-.9.7-1.2.4-1.5-.3-.3-.7-.2-1.5.7-1 1.1-1 1.2-1.4.6-.2-.3-.5-.6-.7-.6-.4 0-1.4 1.8-1.6 2.9-.2.8-3.1 3.3-3.6 3 0 0-.2-.9-.1-1.9 0-1 0-1.7-.2-1.7s-.3-.6-.2-1.2c0-1 .2-1.2 1-1.4.8-.2.9-.2.7.3-.3 1 .5 1.2 1.1.3.3-.4.7-.6.8-.4.2.4 1.5.2 1.5-.2 0-.3-1.6-1.8-2-1.7a3 3 0 0 1-.7-.2c-.9-.2-.3-.6.7-.4 1.6.3 3 .2 3.2-.2 0-.2-.1-.4-.4-.4-.2 0-.6-.2-.8-.5-.2-.2-.6-.4-.7-.3H83c0-.2.4-.6 1-1 1-.6 1.2-1 .6-1s-2.7.9-3 1.3c-.1.2-.2.1 0-.3 0-.4 0-.8-.2-.9C81.2 6.2 80 8.3 80 9c0 .3-.1.4-.2.3-.1 0-.4 0-.7.4-.4.5-.4.3-.2-1 0-1.3.4-2 1.6-3.3.8-1 1.4-1.9 1.4-2.2 0-.7-1.6-.2-2 .7-.5 1.3-1 .9-1-.9.2-1.2 0-1.7-.5-2.3l-.7-.7zm-2.1 11.3l.9.7c.6.7 1 1.4 1 2.1 0 .6-.1 1.1-.2 1.1-.2 0-.6-1-.7-1.7l-.6-1.2c-.3-.3-.5-.7-.5-1zm-.8 4.7c.6 0 2 1 2.3 1.7.4 1 .2 1.3-.5.4-.3-.3-.8-.6-1-.6-.4 0-1.3-1.3-1-1.5h.2zm8.8 2.6h.2c.6.2.4.4-.8 1.3-.8.6-1.7 1.2-2 1.2-.4 0-.7.1-.7.3 0 .1-.1.2-.3.2-.2 0-.3-.3-.3-.7.1-.6.3-.7 1.3-.6 1 0 1.2 0 1.2-.4 0-.3.3-.5.5-.5.3 0 .5-.2.5-.5 0-.2.1-.3.4-.3zm-3.8 4.6l.8.4c.4.2 1 .3 1.5.1.5 0 .8 0 .8.2s-.2.3-.3.3c-.2 0-.5 0-.8.2-.2 0-.8-.1-1.2-.5l-.8-.7zm3.6.8l.3.2c.3.3.5.3.5 0 0-.2.1-.2.3-.1.3.1.2.3-.2.6-.8.6-1 .6-1-.2V24zm4.8 1.2c.3 0 .4.1.3.3-.3.4-.8.4-.8 0 0-.2.2-.3.5-.3zm-7.6 5.1c.2 0 .4.7.4 1.6 0 1.6 0 1.8-.5 1.4-.3-.3-.2-3 .1-3zm-2.4 4.3c.1 0 .2 0 .2.2s-.2.3-.3.3c-.4 0-.4-.2 0-.4v-.1zm2.6.7v1c0 .3-.1.2-.1-.4v-.6zm-4 .2h.3c0 .2-.1.3-.3.4-.2.1-.3 0-.3-.1 0-.2.1-.3.3-.3zM75 36l.3.1-.3.4c-.2 0-.3 0-.3-.2 0-.1.1-.3.3-.3zm-6.7 0l.7.4c.6.9 1.7 1 2.3.3.6-.6 1.3-.7 1 0-.2.1 0 .3.2.3.3 0 .6-.2.7-.4.3-.4.8-.4.8 0 0 .2-.4.5-.9.7-.5.2-1.7.4-2.7.5-1.6.2-1.8.1-2.2-.5l-.3-1c0-.2.2-.3.4-.3zm29.5 17l.3.3c0 .5-.2.5-.5 0 0-.1 0-.3.2-.3zM71 57c.2 0-.2.3-.8.6-1.2.6-1.9.8-1.9.5 0-.2 2.2-1.1 2.7-1.1zm27.7 13.7l1 .1c.4.2.2.3-.8.3l-1.3-.1c0-.2.6-.3 1.1-.3zm7.2 1.7h.4c.2.2.2.3-.2.3-.3 0-.5 0-.4-.2h.2zm.1 8l.9.3c.2.2.3.4.1.4a2 2 0 0 1-.8-.4c-.2-.1-.3-.2-.2-.3zm-56 13c.2 0 .3 0 .2.2-.1.2-.4.3-.5.3-.5 0-.4-.2.2-.4h.2zm5.3 2.8l.7.8.7.7.6-.8c.5-.8.5-.8.8-.3.3.5.4.5.6.2.2-.3.3-.2.5.3.2.7.8 1 .8.3 0-.1.4-.3.9-.3h.8l-1 .5c-.5.4-1.4.5-2.2.4-.8-.1-1.3 0-1.2.1.2.4-.3.4-1.2-.2-.6-.2-1-.3-1-.1 0 .2-.4.2-.7 0-.5-.1-.5-.2.1-.9l.8-.7zm7.4.3h.2c.2.1.1.3-.3.4-.6.1-.7 0-.5-.2l.6-.2zm-3.2 13.3l.2.1c0 .2-.2.4-.4.4-.4 0-.4-.2 0-.5h.2z"/><path fill="%231A231C" d="M134.2 122.9l.1-3.4c.2-1.5.2-1.6.7-1.4l1.2.2.7.1c0 .1.3.2.7.1.6 0 .8.1 1 .5 0 .5.8.6.8 0 0-.3.4-.3.9 0 .2.1.3 0 .2-.2-.1-.2 0-.3.4-.2h.3c-.5-.3-.4-.7 0-.5.2 0 .5-.1.7-.4l.4-.6v.5c0 .4.2.6.3.6l.2-.2c0-.1.3-.2.7-.1.3 0 .6 0 .6-.2 0-.1-.2-.2-.5-.2l-.8-.4c-.1-.2-.6-.4-1-.5-1.1-.3-1-.5.3-.5l1.8-.2c.4-.1 1 0 1.2.1.4.2.6.2.6 0 .1-.2.2-.2.4-.1.3.2 2-.2 1.8-.4 0-.1-.5-.2-1-.1-.6.1-.8 0-1-.6-.2-.6-.2-.7.2-.7s.4 0 .2.3c-.2.2-.2.3.2.4h.5c0-.2.2-.3.4-.3.1 0 .4-.3.5-.6.2-.3.5-.5.9-.6 1.3 0 1.3 0 .7-.4-.4-.4-.5-.5-.1-.7l.5-1.1c.2-1-.3-1.1-1.1-.2-.8.9-1.8 1.2-2.5.9-.5-.3-.7-.8-.3-.8.2 0 .3-.1.2-.3 0-.2.1-.3.3-.2.2 0 .3 0 .3-.2 0-.1.2-.2.5 0 .3 0 .5 0 .4-.2l.3-.7c.4-.8.2-1-.9-1.2-.5-.1-.8-.3-.6-.4.2-.2.4-.2.7 0 .7.3 1 .3 1 0 0-.1-.1-.2-.4-.2-.8 0-.8-.5 0-.9l.8-.3-.7-.2-.7-.2.6-.5.7-.8c0-.1-1.4.1-2 .3a3 3 0 0 1-.5.2l-.3.2c-.4.4-2.6.1-2.6-.3 0-.2.2-.3.5-.3s.9-.2 1.2-.6c.3-.3.7-.5 1-.4.2.1.3 0 .2-.3-.2-.4-.2-.4 0-.2.4.3.9 0 1.1-.9.1-.3.3-.4.7-.4.3.1.4 0 .5-.5.1-.6-.1-.8-.4-.4-.2.4-1.1.3-1.3 0 0-.3-.3-.5-.5-.5-.1 0-.3 0-.3-.2l.4-.2c.2 0 .3-.2.3-.3l.4-.2c.3 0 .4-.1.2-.4-.4-.4 0-.7.3-.4.3.2.3.2.3-.2 0-.3-.1-.4-.3-.4l.2-.2.4-.5c0-.3-.5-.1-1.6.6l-1.2.7c-.4 0 0-.7.6-1.4.5-.5.7-.8.4-.9h.4c.5.1.7 0 .7-.3 0-.2-.2-.4-.6-.4-.3 0-.4 0-.2-.1.2 0 .3-.3.3-.5s0-.3-.2-.3c0 .1-.4 0-.7-.2-.4-.2-1-.3-1.6-.3-.7 0-1 0-1.2-.2l.1-.3h.6c.4 0 .4 0 0-.3-.3-.2-.3-.2 0-.2.5 0 1-1 .7-1.5-.1-.1-.7 0-1.4.5-1 .7-1.3.8-1.5.5-.3-.6-.3-1 0-.6.2.2.5.3.7.3.3 0 .3 0 0-.3-.2-.3-.2-.5.2-.8.3-.3.3-.5.1-.5-.1-.1-.3-.2-.3-.4 0-.1.3-.2.6 0 .3 0 .4 0 .3-.2 0-.1 0-.2.2-.2.3 0 .4-.1.4-.3 0-.5-.5-.5-1.2 0-.8.4-1 .5-1.4.1-.3-.2-.7-.3-1-.2l-.4-.1v-.3c.2 0 .3-.2.3-.4 0-.4 0-.4.4 0 .4.6.5.4 0-.4-.2-.5-.2-.5.3 0 .6.4.6.4.9-.4.1-.4.4-.7.6-.7.3 0 .4-.2.5-.5 0-.5 0-.6-.5-.5-1 .3-1.5 0-1.2-.4.2-.2.2-.6.2-.8-.2-.3 0-.3.3 0 .8.3 1 .2.8-.5 0-.3 0-.6.2-.6.1 0 .2 0 .1-.2 0-.2 0-.5.2-.7.2-.2-.2 0-.8.6-.6.5-1.5 1.1-2 1.3-.4.2-.7.4-.6.5v.3l-1 .1c-.5 0-.9 0-.9-.2 0-.1 0-.2-.3-.1-.2 0-.2.2-.3-.1 0-.4 0 0 .2-.2.4-.3 1.2 0 1.2-.3l.4-.2a2 2 0 0 0 1-.4c.3-.2.6-.3.7-.2l.1-.3v-.6c0-.4-1.7-.1-2.6.4l-1 .2V84c0-.5 0-.7.4-.8.5-.2.7-.6.2-.6v-.5c.4-.4 1.6-.4 1.5 0 0 .2.2.4.6.5h.7c0-.2.1-.2.3 0 .3.2.4.2.5 0 .1-.1 0-.4-.4-.5-2.2-.9-2.7-1.1-2.8-1.4 0-.3 0-.3.2-.1.2.1.4.2.5.1l1.5-.1c1.2 0 1.5-.1.5-.3-.8-.1-1.3-.7-1.2-1.3 0-.5 0-.6-.4-.3l-.3.4-.8.2c-.5 0-.8 0-.7-.1 0-.1 0-.5-.3-.9-.2-.5-.2-.6 0-.5.3.1.4 0 .4-.4 0-.3.2-.5.3-.5.2 0 .4-.2.5-.4.1-.5 0-.5-.8 0-.5.3-1 .6-.9.7l-.7.1c-.8.1-.9 0-.5-.3l.4-.5c0-.1.3-.4.7-.5.4-.2.7-.5.6-.6 0-.2 0-.4.2-.6.2-.1.5-.6.6-1 .3-.8.3-.8-.2-.5l-.4.5c.1.2-.2.3-.6.3-.4 0-.7 0-.7-.3 0-.2-.1-.3-.4-.2-.3.2-.3 0 0-.4.7-.6.7-1.6.1-1.6-.2 0-.5-.1-.6-.4 0-.3-.2-.4-.3-.3l-.4-.1c0-.2.1-.4.4-.4.3-.1.5-.4.5-.6 0-.3 0-.3-.3-.1-.4.4-.7.4-.7 0 0-.3-.1-.5-.3-.5l-.9-.5c-.4-.2-.7-.4-.7-.2-.1.3.9 1.3 1.2 1.1v.3c0 .2 0 .3.2.3l.2.5c0 .5 0 .5-1 0l-1.5-.9c-.3-.2-.4-.3-.5 0-.1.1 0 .3.3.4.3 0 .6.3.7.6 0 .2.2.4.3.3.2-.1.5.5.6 1.3 0 .3.3.8.6 1 .6.4.3.6-.5.2l-1-.4-1.1-.6c-.8-.6-.8-.6-.8-.2 0 .3.2.6.5.7.3 0 .4.3.4.4 0 .2.1.3.3.3.4 0 .7.9.4.9l-1-.4c-.4-.2-.7-.3-.8-.2h.2c.3.1.3.2 0 .3-.4.3.1.8.9.8.6 0 .6.1.5.9-.1.7 0 .8.4.8.3 0 .7-.1.8-.3.2-.1.3 0 .4.3.2.5.1.6-.9.4-.5 0-1.4-.4-2-.6-.7-.4-.8-.4-.6 0 .4.6 1.2 1.4 1.4 1.4.4 0 1.6 1.3 1.4 1.6-.4.3-2.4-.5-3.3-1.3-.6-.6-.9-.7-1-.5-.3.2-.2.2 0 .2s.2.2.1.3c0 .2.2.5.5.8.5.5.5.7.3 1-.1 0-.2.2 0 .1.5-.1 1.3.4 1.3.9 0 .2.2.5.5.6.3 0 .5.2.5.3 0 .1.2.2.4 0 .3 0 .4 0 .3.2-.4.5-1.3 0-3-1.6l-1-.8c-.4-.4-.5-.4-.3 0v.5c-.2 0-.1.2 0 .5.7.7.8 1.7.2 1.7-.4 0-.4 0 0 .3l.6.2s.3.1.5.4c.2.3.6.6 1 .6.8 0 .8.3 0 .7-.4.2-.9.2-1.3 0h-.6c0 .1-.3 0-.6-.4-.3-.3-.8-.6-1-.6-.1 0-.4-.2-.4-.5-.2-.6-.5-.6-.9 0-.3.5-.2.5.1.5.4 0 .4 0 .1.3-.3.2-.3.2 0 .4.3 0 .5.3.4.5 0 .2 0 .5.2.7.3.2.3.4.1.5-.3.2.2.8.7.8.2 0 .3.2.3.3 0 .2-.4.2-1.1.1h-1c.2.2.4.3 1.6.5l.8.1h.7c.5 0 .5.1.2.2-.8.2-1.2.7-.8 1 .2.2.5.3.8.3.3 0 .3.1 0 .4 0 .1-.1.4 0 .4 0 .1 0 .3-.3.4-.2 0-.3.2-.2.3.3.7-3.1-.3-3.6-1l-1.7-1 .3.8c.2.4.4.6.8.5.4 0 .4 0 0 .3-.5.3-.5.4-.1.4s.8.6.5 1c0 .1.1.2.4.2.3 0 .5.3.7.7 0 .3.4.8.8 1 .5.2.7.5.6.7l-.3.4c-.4 0-3.7-1.8-4.1-2.2-.5-.6-1.4-.8-1.4-.3l.6.2c.4 0 .4.1.2.3-.4.2-.2 1.2.2 1.2.2 0 .2.1.1.3l.1.2c.2 0 .3.1.2.2-.1.2 0 .3.4.4.3 0 .6.2.6.4s.2.4.6.5c.4 0 .7.2.7.4l.6.7c.4.3.5.4 0 .4-.2 0-.3 0-.2.2.2.3-1 0-1.7-.5a3 3 0 0 0-.8-.5l-1-.6c-.8-.6-1.2-.5-1 .2.1.2.3.4.5.3.2 0 .3 0 .3.3 0 .2-.2.3-.4.4-.2 0-.2 0 0 0 0 .2.2.4 0 .6 0 .3 0 .3.5 0 .5-.2.7.1.2.5-.4.2.7 1 1.1.9l.4.1c0 .2-.1.4-.3.5-.2 0-.3.2-.2.4 0 .2.2.3.3.3.1-.1.2 0 .2.2 0 .7-.6.4-1.8-.9-1.3-1.3-2.5-2-2.7-1.7-.1.1 0 .3.2.5.5.4.5 1.5 0 2-.3.4-.3.5 0 1 .1.2.4.4.6.4h.3c0 .2.1.2.3.2.5-.2.5.1.1.6-.3.3-.2.3.2 0 .6-.3.9-.1.9.6 0 .4 0 .4.6.3.5-.1.6 0 .4 0-.5.4-.2.9.3.7.3-.1.3 0 .2.2 0 .4-.2.4-1 0-.5-.2-1.4-.8-2-1.3l-1-1 .2 1c0 .6.2 1.2.3 1.2.4.2 1 1.5.7 1.7l-.2.3c0 .3 1.3.5 1.6.3.3-.4.6-.3.6 0 0 .2-.4.5-.9.7-1 .3-2 0-2.5-.7-.3-.3-.3-.3-.3.1 0 .3.2.8.5 1l.3.6.6.4c.4.2.7.5.7.6-.2.4.6.6 1 .3.2-.2.4-.2.7.2.2.3.7.5 1 .5.8-.1 1 0 .5.2-.3.1-.8 0-1.3-.1-.7-.3-.8-.3-1 0-.2.2-.5.3-.8.3l-1-.3-1.2-.3c-.5-.1-.5 0 .1.8.4.5.8.8 1 .7.5-.2 1.2.4 1.2 1 0 .2.1.4.2.3 0 0 .4.2.7.6.2.3.6.5.7.4.4-.3.6.4.2.7-.3.2 0 .3 1.2.2 1.4 0 1.6 0 1.6.5 0 .3.1.4.4.3.2-.1.5-.1.8 0 .2.1.7.2 1 .1.9 0 .6.4-.4.7l-1 .3 1.2-.1 1.2.1c0 .1-.2.3-.5.3-.6 0-.6 0-.1.2.4.1.7 0 1.1-.4.7-.6 1.2-.8.9-.3-.1.1 0 .2 0 .2.7 0 .3.5-.5.6-.7.2-.7.2-.3.4.2.2.6.2.9.1.2-.1.4-.2.5-.1l.5-.8c.4-.9.7-.9.8 0 0 .4.2.6.4.6 1.4-.3 1.5-.3 1.5.8 0 1-.4 3.8-.6 5.1-.2.7-.1.7.8.7h1l-.2-1.7zm4-5.4c-.2 0-.2 0 0-.2.2 0 .2-.2.1-.4 0-.3 0-.4.4-.2.8.3 1.2.3 1.5 0 .3-.1.4-.1.4 0 0 .2.2.3.4.4.4 0 .4.1-.1.3-.5.2-1.4.2-2.6 0zm6.3-4c0-.2.1-.1.3 0l.3.8c0 .3-.6-.5-.6-.9zm-3.5-1c0-.1 0-.2.2-.2s.2-.2.1-.5c0-.5 0-.5.2 0 .3.4.4.4.7.1.4-.4 2.2-.5 2.2-.2 0 .2.2.3.4.3.5 0 .4.5 0 .6-1 .2-3.8.2-3.8 0zm-2.6 0c0-.5.4-.5.6 0 0 0 0 .2-.2.2s-.4-.1-.4-.3zm-3.5-.6c-.1-.1 0-.2.2 0 .4 0 .5.2.2.2-.2 0-.3 0-.4-.2zm-10.3-.4a.3.3 0 1 1 .6 0 .3.3 0 0 1-.6 0zm19.9-.5l.5-.2c.3 0 .5 0 .4.1-.1.2-1 .3-1 .1zm-20.2-.5c.1-.4.3-.4.3 0 0 .2-.1.3-.2.3s-.2-.1-.1-.3zm19.2-.8c0-.1.2-.2.5-.2.6 0 .6 0 .3.2-.6.2-.5.2-.8 0zm-1.3-.4s.2-.1.4 0c.4 0 .4.2 0 .2-.2 0-.4 0-.4-.2zm4.4 0c-.2-.3-.4-.3-.6 0-.3.1-.6.1-1.2-.2-.5-.2-.8-.5-.6-.5.2 0 .5 0 .7.2.3.3.5.3.6 0 .2-.2.5-.2 1.3 0 .9.2 1 .3.8.5-.5.3-.6.3-1 0zm-25.5-1.2c-.2-.2.2-.2 1.7 0 0 0 .2.1.2.3 0 .3-1.5.1-1.9-.3zm24-1c0-.1 0-.2.3-.1.4.1.5.3.1.3l-.3-.2zm-.9-3.4c.1-.4.3-.4.3 0l-.2.4c-.1 0-.2-.2-.1-.4zm-.5-1c-.4-.3 0-.9.4-.7.2 0 .7 0 1-.2.4-.3.8-.4 1.2-.3.7.2.6.4-.7.9-1.3.5-1.4.5-1.9.2zm-24.6-1.5c0-.5.8-1.2 1-1 0 .2.3.4.5.5.8.4.5.8-.5.8-.6 0-1-.1-1-.3zm23.3-.9h.5c0 .1-.1.2-.4.2-.3 0-.3 0-.1-.2zm-1.3-2.9c.3-.2.3-.2-.1-.3-.4 0-.5 0-.2-.2s.5-.1.7 0c.2.2.4.2.5 0 0-.1 0-.3-.3-.4-.2 0-.3-.3-.3-.4 0-.3 0-.3.1-.1.3.4 1 .6 1.3.4 0-.2.2-.2.3-.1.2 0 .3 0 .3-.2 0-.1.2-.2.6-.2.4 0 .5 0 .5-.4 0-.2.1-.4.4-.4 1.8 0 .6 1.7-1.7 2.2-1.9.4-2.6.5-2.1.1zm-14.3-3l.3-.3c.2 0 .4.2.4.3 0 .2-.2.4-.4.4a.3.3 0 0 1-.3-.4zm15.3-.4c-.3-.2-.3-.2.2-.2.3 0 .6 0 .6.2s-.3.2-.8 0zm-2.7-3c-.3-.5.4-1 .8-.6.3.3 0 .8-.4.8l-.4-.3zm-1.3-.7c.1-.5.3-.5.3 0l-.2.3c-.1 0-.2-.2-.1-.3zM128 89c0-.2.1-.3.2-.3s.2.1 0 .3c0 .4-.2.4-.2 0zm9.7-1v-.3c.2 0 .4.1.5.3v.3c-.2 0-.4-.1-.5-.3zm1.6-.4c0-.4.5-.3.6.1 0 .2-.1.3-.3.3-.3 0-.4-.2-.3-.4zm1-.6c0-.3.5-.4.7-.1.3.4.2.5-.3.4-.3 0-.5-.2-.5-.3zM129 85.4c-.9-.6-.9-.7 0-.5.4 0 .6.2.5.3 0 .2.2.3.5.4.3 0 .3.1 0 .2l-1-.4zm2.9-2.8h.3c.3 0 .4 0 .3.2-.2.2-.6 0-.6-.2zm3.5-3.6c0-.3.2-.4.7-.3.7.2.7.2.2.4-.8.3-1 .3-1-.1zm9.6 38.7h-.5c-.2 0-.1.1.2.1.2 0 .4 0 .3-.1zm-4.4-40c.3-.7.3-1 0-1s-1 1.2-.6 1.3c.1.1.4 0 .6-.4zm-3.6-7.5l-.2-.3a2 2 0 0 1-.7-.1c-.2-.1-.4-.1-.4 0 0 .2.3.4.7.5l.6-.1zm-2.4-2c.2-.3.2-.4-.2-.2s-.4.2 0-.2.3-.4-.4-.3h-.9c0 .2 1 1.2 1 1.2l.5-.4zm.1-1.5c.5-.6.5-.7.1-.5-.2.1-.4 0-.4 0 0-.2-.2-.4-.3-.4-.2 0-.2.1 0 .4.3.4 0 1-.7 1-.4.2-.4.2.2.3.4 0 .8-.3 1.1-.8zm0-1.7c.5-.4.5-.8 0-.8-.4 0-.8.8-.5 1 .2 0 .4 0 .6-.2zm-.3-2V62c-.2-.2-.3-.1-.3.4 0 .9.1 1 .3.4z"/><path fill="%231D221D" d="M118.3 30.2c-.2 0-.2.2-.1.6.1.5 0 .6-.2.4-.3-.2-.6-.1-1.2.4-.6.7-.6 1-.3 1.3.3.4.1.6-.6 1.2-.6.4-1 .8-1 1l1 .7 1 .5-.9-.1c-.7 0-1 0-1 .6 0 .4 0 .8.2 1 .5.2.4.7-.1.7-.3 0-.9.3-1.3.7-.7.5-.8.8-.7 1.4.3.9.4 1 .9.6.3-.3.4-.3.4.2 0 .4-.2.5-.5.4-.3 0-.7 0-.8.2-.3.5-1.1 0-.9-.5.1-.3 0-.4-.2-.3-.2.2-.3.5-.2.7 0 .2 0 .7-.3 1-.3.5-.3.6 0 1l.8.4c.3 0 .2.3-.2.7-.4.4-.9 1-1 1.5-.4.6-.4.8.3 1.4.6.5.6.6 0 .8-.8.3-1.4 1.1-1 1.6.2.3.1.4-.4.5-.4 0-.8.3-.8.5-.2.4 0 .4.9.2s1-.1.8.3c-.3.9 0 1.3.7.8.5-.4.5-.4.1 0-.2.4-.7.5-1.2.5-.6-.2-.7-.3-.4-.6.3-.4.2-.5-.3-.5-.8 0-1.4 1-.8 1.2.2 0 .4.4.4.8 0 .7.7 1.6 1.3 1.6.2 0 .3-.2.3-.4s.2-.2.4-.1.2.3-.2.5c-.3.2-.4.4-.4.6.1.1 0 .3-.3.4-.2.1-.5 0-.5-.1 0-.5-1.8-.4-2 0-.1.4-.2.4-.2 0 0-.2.3-.4.7-.5.6-.2.7-.8 0-1-.4-.1-2.2 1.5-1.7 1.7.3.1.2.3-.1.7-.5.4-.5.5 0 .9.4.2.5.4.3.5-.2 0-.1.1.1.3.5.2.4.3 0 .9-.3.3-.6.7-.6 1 0 .4.9.5 1.1 0 .1-.1.4-.2.7-.1.4.2.4.2 0 .6l-.9.3c-.1-.1-.5.1-.9.4-.5.5-.6.7-.3.9.2.1.3.5.3 1-.1 1.3 0 1.7.5 1.5.3 0 .5 0 .5.3 0 .6-.8 1.5-1.3 1.5-.2 0-.3.2-.3.4s.4.3 1.2.2c1-.2 1.4 0 1.9.5.4.5.5.6 0 .3-.4-.3-.6-.3-.7 0-.2.2-.3.2-.5-.1-.2-.4-.4-.4-.7 0-.3.2 0 .3.8.5.7.1 1.2.3 1.2.4 0 .3-1 2.2-1.5 2.6-.3.2-.4.5-.3.6.1.1.4 0 .6-.2.7-.7.9-.3.2.6-.6 1-.5 1.4.3.6.2-.3.3-.2.2.4 0 1-.8 2.3-.8 1.6 0-.3-.3-.7-.6-.9-.5-.3-.7-.3-1.1.1-.8.7-1.4.2-.7-.5.5-.5.5-.8.2-1-.2-.2-.4-.3-.5-.2-.4.3-.5 2.8-.2 2.8.2 0 .3.2.3.3 0 .2-.1.3-.3.3-.6-.2-.7 1.6-.1 1.9.4.1.4.3-.2.8-.6.7-.8 2.5-.3 2.5.2 0 .2.3.1.6-.1.5 0 .7.6.7.5 0 .6 0 .3.3-.3.1-.4.4-.2.6 0 .2 0 .3-.4.1-.5-.2-.5-.1-.1.3.2.3.8.4 1.2.4.7-.2.8.2.3 1-.2.3 0 .6.5.8.7.3.7.3-1 .5a2 2 0 0 0-1.1.5c-.3.3-.2.5.3.8.4.3.8.7.8.9 0 .2-.2.2-.4 0-.6-.6-1-.5-1 0 0 .3.3.5.5.5.3 0 .5.2.7.5 0 .3.3.5.6.5l.8.4c.4.4.3.5-.5.4-.5 0-1 .2-1 .4-.1.4.1.4.9.3 1-.1 1.3.3.6 1-.4.3-.3.5.3 1 .4.4.7.8.6 1-.2.2-.1.3 0 .3.3 0 .4.2.4.5 0 .2-.1.5-.3.5-.2 0-.3.2-.3.4 0 .7.8.7 1.2 0 .3-.5.4-.5.4.1 0 .8.3 1 .9.4.3-.3.4-.3.4 0 0 .2-.2.3-.4.3-.1 0-.3.3-.3.5 0 .3.2.5.5.5s.5.3.5.6-.1.4-.3.2c-.3-.6-1.6-1.2-2-1-.5.4.5 2.1 1.3 2.1.2 0 .3.2.1.4l-.2.8-.3.4c-.5.2-.9 0-.9-.4 0-.6-.5-.7-.8-.2-.1.2 0 .5.2.7.4.2.4.3 0 .3-1 0-1.1.7-.3 1.3.6.5.7.7.3 1-.3 0-.4.3-.2.4 0 .2 0 .4-.4.7-.5.3-.4.4.4.7.7.3 1 .3 1.1 0 0-.1.3-.3.5-.3s0 .4-.4.8l-.7 1c0 .6 1.4.6 2 0 .3-.3.3-.2.2.2l-.3 1c0 .1-.2.2-.6 0-.7-.2-1.5.7-.8 1 .3.1.4.4.1 1.5-.2 1.1-.2 1.4.2 1.6.3.2.4.5.3.9-.2.4-.1.4.4.2.5-.1.5-.1.2.2-.6.6-.5 1 .2.8 1-.2 1.1.3.3 1-.4.5-.5.7-.3.9.3.1.7 0 1-.4.6-.5.7-.5 1 0 .4.6.4.9 0 .8-.3 0-.5.1-.6.3 0 .3.1.4.5.4.8 0 2.6 3.6 2.3 4.5-.2.5-.2 1-.2 1.2l.1.1h5.4l-.3-1.5c-.4-1.4-.4-1.5.5-3.4.6-1.1 1.4-2.3 1.9-2.7.7-.6.7-.8.3-1-.4-.4-.4-.4.1-.7.3-.2.6-.7.6-1.1 0-.7.1-.8.8-.8 1 0 1-.7.1-1-.6 0-.6-.1 0-.5.4-.4.5-.5 0-.8-.4-.2-.3-.3.3-.3.5 0 .7-.2.7-.6 0-.3.2-.7.4-1 .3-.3.3-.4 0-.6-.3-.2-.2-.5.5-1 .5-.4 1.1-.7 1.3-.7.2 0 .3-.2.2-.4-.3-.6-1-.7-1.2-.1 0 .3-.4.2-1.2-.2-.6-.3-.8-.5-.4-.4 1 .3 1.6-.6 1.1-1.6s-.5-1.1 0-1.1c1 0 1-.8 0-1.5-.5-.5-.7-.8-.4-.8.3 0 .7-.4 1-1 .4-1 .4-1-.2-1.5-.6-.4-.6-.5.5-1.6 1-1 1-1 .5-1.4-.5-.2-.5-.4-.1-.6.2-.1.3-.4.2-.5-.2-.2-.6 0-2.4 1.3-.3.3-1 .4-1.3.3-.7-.2-.6-.2.6-1 2.5-1.7 4-3.3 2.6-2.8-.5.2-.5.1 0-.3.3-.2.5-.6.3-1 0-.6 0-.8.4-.8.5 0 2.4-1.8 2.4-2.3 0-.1-.2-.3-.4-.3s-.1-.2.2-.4c.6-.5.6-.5 0-1.2-.4-.4-.6-.9-.5-1.1.2-.5-.2-.6-1-.3-.7.3-.7.8 0 .8.5 0 .5 0 .2.4-.4.3-.5.3-.7 0-.2-.3-.5-.4-.8-.3-.5.2-.5 0-.4-.5l.2-1.3c0-.3.2-.5.3-.4.5.3 1.4-.5 1.2-1-.1-.2 0-.4.2-.4s.3-.1.2-.2c-.1-.1 0-.7.4-1.3.6-1.1.3-1.8-.4-1-.2.3-.5.5-.7.5-.2 0-.2-.1 0-.4.3-.2.3-.5.2-.7-.2-.1 0-.1.1 0 .3.1.5 0 .6-.4.2-.3.5-1 .9-1.4.7-1 .7-1.4-.1-1.1-.5 0-.6 0-.6-.7 0-.5.2-1.2.5-1.6.4-.6.4-.9.1-1.2-.3-.2-.5-.2-.7.2l-1 .7c-.3.1-.4 0-.3-.8 0-.6.3-.8.6-.7.5.2 1-.8.5-1.1-.3-.2-.4-.4-.4-1 0 0-.2 0-.5.3-.4.4-1 .4-1.6.3l-1-.2h1c.5-.1.8-.3.7-.4-.1-.2.2-.5.8-.6.5 0 1-.3 1-.6 0-.5-1.1-1-1.3-.5 0 .2-.3.4-.4.4-.3 0-.2-.2 0-.5.4-.5.4-1.5-.1-1.9-.2 0-.1-.2.2-.2.3 0 .6-.3.7-.7.2-1 0-1-.8-.6-.7.4-.7.4-.3-.2.3-.3.6-.8.6-1 0-.3 0-1 .2-1.6.2-1-.3-1.5-.7-.5-.1.3-.4.4-.8.3-.6-.2-1.7 1.1-1.4 1.7.1.2 0 .4-.1.5-.6.4-.6-1.4 0-2 .4-.3.5-.7.4-1 0-.2.2-1 .5-1.5.4-.6.7-1.4.7-1.8 0-.4.2-.9.5-1.1.5-.4.5-.4-.3-.4-.4 0-.9-.2-1-.5 0-.3 0-.4.6-.3.7.2.7 0 .7-1 0-.7-.2-1.6-.4-1.9-.1-.4 0-.7.2-.9.3-.1.3-.3.2-.3-.2 0 0-.3.3-.6.5-.5.5-.7 0-.7-.2 0-.6.4-.9.7-1 1.5-1.5-.2-.7-2.7.2-.7-.1-.7-.9 0-.3.3-.6.4-.7.2-.1-.2.2-.6.6-1 .7-.4.8-.6.4-.8-.5-.5-.5-1.6 0-2 .4-.3.5-.4.2-.4s-.9.4-1.4 1c-.9 1-1 1-1 .3 0-.4.2-.7.3-.8.2 0 .4-.4.4-.9.1-.7 0-.8-1-.8-.6 0-1.3-.2-1.7-.5-.4-.5-.4-.6 0-.6.2 0 .4.1.5.3 0 .2.4.3 1 .2.7-.2.8-.4.7-1.5-.1-1 0-1.3.3-1.3.7 0 .6-.4-.2-.8-.4-.3-.8-.4-1.2-.1-.9.4-.9 0 0-.6 1.2-.7.7-1-1.2-1-1.6.2-2 0-1.5-.5.1 0 .4 0 .7.2.4.4.4.3.3-.1-.2-.4 0-.6.4-.6.3 0 .7-.2 1-.5.4-.5 0-.6-1.5-.5-.6 0-.6 0-.1-.4s.5-.8.2-3c-.1-.3-.4-.6-.7-.7h-.3zm-.5 2c.3 0 .6.2.6.4s-.3.4-.6.4c-.4 0-.7-.1-.7-.4 0-.2.3-.4.7-.4zm-.2 1.8c.3 0 .5.2.5.3 0 .6-.6.7-.8.2-.1-.3 0-.5.3-.5zm-3.4 5.8c.2 0 .3 0 .3.2l-.3.3c-.2.1-.3 0-.3-.1 0-.2.1-.4.3-.4zm-1.2 2.8c.4 0 .8.1 1 .5.3.6 0 .7-.8.2-.3-.2-.7-.2-1 0-.2 0-.2 0-.1-.2.2-.3.6-.5 1-.5zm-1.7 1.9c-.5 0-1.3.4-1.3.8s.1.4 1.2 0c.6-.3.8-.5.5-.7l-.4-.1zm12 .7l-.7.8c-.8 1-1 1-1 .6 0 0 .4-.5 1-.8l.8-.6zM121 47c.4 0 .7.3.4.6-.3.3-.7.3-.9 0 0-.2 0-.4.3-.5h.2zm2 4l.3.2 1 .2c.1 0 .2.1 0 .3-.2.5-.6.4-1.1-.2-.3-.3-.3-.4-.3-.5zm-8.6.8l-.2.4c-.4.5-.6.6-.6.2 0-.2.2-.4.5-.5l.3-.1zm-1.6.5l.3.4c.1.1 0 .3-.1.3-.2 0-.4-.2-.4-.3 0-.2 0-.4.2-.4zm10.7 1c.2 0 .4.1.4.3 0 .4-.3.4-.5 0-.1-.2 0-.3.1-.3zm-10.8.1c.2 0 .2 0 .2.2s-.1.3-.3.3c-.4 0-.4-.2 0-.4h.1zm-4.5.3l-.6.3c-.5.5-.5.6 0 .6s1-.6.7-1h-.1zm5.4.9c.1 0 .3.1.3.3 0 .4-.2.4-.5 0 0-.2 0-.3.2-.3zm9.4 2l.2.4c0 .5-.2.6-.5.2 0-.2 0-.4.2-.5h.1zm-13.8.3l.2.2c0 .2-.1.4-.3.4-.4 0-.4-.3 0-.5h.1zm-1.4.7l.3.5c0 .2-.1.3-.2.3-.2 0-.3-.2-.3-.4s0-.3.2-.4zm15.5 2.9c.2 0 .2 0 .2.2s-.1.3-.3.3c-.4 0-.4-.2 0-.5h.1zm1.8 1.4c.2 0 .4 0 .6.3.4.3.3.4-.2.4-.4 0-.7-.1-.7-.3 0-.2.1-.4.3-.4zm-17.8 1c.3 0 .5.1.5.2 0 .3-.6.5-.8.2-.1-.2 0-.4.3-.4zm1.2.7h.1c.1.1-.1.5-.5.8-.3.3-.6.4-.6.2 0-.3.7-1 1-1zm15.7.6c.2 0 .3 0 .3.2l-.3.3c-.2.1-.3 0-.3-.1 0-.2.1-.4.3-.4zm-14.7 0l.1.1v.6c0 .3-.2.2-.2-.2l.1-.4zm12.5 1.3l.3.1c.3.1.2.2-.2.2-.3 0-.5 0-.4-.2h.3zm-.4 3.9l.3.1-.3.3c-.2.2-.3 0-.3-.1 0-.2.1-.3.3-.3zm-13.8.3l-.5.3c-.2.2-.4.5-.3.7.2.3.5.3 1.1 0 .4-.3.4-.4.1-.7-.1-.2-.3-.3-.4-.3zm2 .3c.3 0 .6.1.7.3.3.4.2.4-.6 0-.5-.2-.6-.3-.1-.3zm14.8 2.3l.3.2c.2.2.3.5.2.6-.1 0-.3-.1-.4-.4l-.1-.4zm1 1.7h.1c.1.1 0 .4-.2.6-.3.3-.3.3-.2-.2l.3-.4zm3.6.2c-.3 0-.5.2-.5.5 0 .6.1.6.6 0 .3-.4.3-.5-.1-.5zm-20.1 2c0-.1.2 0 .2.5 0 .4 0 .7-.2.8-.1.1-.3-.2-.3-.6 0-.5.1-.7.3-.8zm18.9.6v.3c0 .3-.1.7-.3.8-.4.2-.4-.2 0-.8l.3-.3zm-22.7 3.5c.1 0 .3.1.3.3 0 .2-.3.3-.5.3-.3 0-.5-.1-.4-.3l.6-.3zm24 4.2c-.2 0-.4.3-.2.8.2.4.3.5.6.2s.3-.5 0-.8l-.4-.2zM104.9 86c-.2 0-.5.3-.6.5 0 .3.1.4.4.4.3 0 .5-.2.5-.5s-.1-.4-.3-.4zm3 1.3l.7.5c.6.5.6.5 0 .3-.5-.2-.8-.1-.8 0 0 .3-.2.4-.4.4s-.2-.2.1-.5l.5-.7zm-1.7.3l.3.1-.3.4c-.2 0-.3 0-.3-.2s.1-.3.3-.3zm18.6.6c.2 0 .3 0 .3.2l-.3.3c-.2.1-.3 0-.3-.1 0-.2.1-.4.3-.4zm-17.5 1.1h.1c.1.2 0 .4-.3.5-.7.5-1.1.4-.4-.2l.6-.3zm17.2 1.2c.4 0 .6.2.6.5 0 .2-.1.4-.3.2-.2 0-.6.1-.8.4-.5.6-.5.6-.3 0l.2-.8c0-.2.2-.3.6-.3zm-16.4 0c.5 0 .5.2.3.5-.5.5-1 .5-1 0 0-.2.4-.4.7-.4zm4 .3c.2.2.2.5.1.7-.1.2-.2.2-.2-.2l.1-.5zm-3.3 1c.3 0 .6.1.6.3 0 .2 0 .3-.2.2-.1-.1-.4 0-.6.1-.4.3-.5.3-.5 0s.3-.5.7-.6zm-1 1.7h.3l.7.4c0 .2-1 0-1.1-.2-.1-.1 0-.2.2-.2zm1.1 1.1c.3 0 .5 0 .5.2l-.5.3c-.2 0-.5 0-.5-.2 0-.1.3-.3.5-.3zm15.6 0l-.5.4.1.3.6-.3c0-.2 0-.4-.2-.4zm0 1.6c.5 0 .4.3-.1.9-.7.6-1 .5-.5-.2.1-.4.4-.7.6-.7zm-2.1 2.7h.3c.4 0 .7.2.6.3-.2.4-1 .3-1.2 0 0-.2 0-.3.3-.3zm-13.6 4.5h.5c.6 0 1 .2 1 .3 0 .3-.6.3-1.4 0-.4-.2-.4-.3 0-.3zm-1.8.9c-.2 0-.5 0-.6.3-.2.2 0 .3.4.3s.7-.1.7-.3c0-.2-.2-.3-.5-.3zm1.8.3l.3.1-.3.4c-.2 0-.4 0-.4-.2s.2-.3.4-.3zm14.5 4.6c.2 0 .2.1.2.3 0 .3-.1.6-.3.7-.2.1-.3 0-.3-.3 0-.2.1-.5.3-.6h.1zm-1 1.2l.3.1-.3.4c-.2 0-.4 0-.4-.2s.2-.3.4-.3zm-11.6.3l.4.1c.2.1 0 .2-.4.2s-.6-.1-.4-.2h.4zm-2.6.3c-.3.1-.6.5-.6.8 0 .3.1.5.3.5.3 0 .7-1 .5-1.2h-.2zm2.4 1.7h.1c.1.2 0 .4-.2.6-.3.4-.3.3-.2-.1l.3-.5zm9.7 4.2c.1.3-.2 1-.5 1.6-1 1.6-1 1.5-.2-.4l.7-1.2zm-5.7.2c.2 0 .4.2.4.3 0 .2-.2.4-.4.4a.3.3 0 0 1-.3-.4l.3-.3zm-1.2.3l.5.5c.3.8-.1 1-.5.2-.3-.5-.3-.7 0-.7zm.7 1.8l.4.2c.3.2.5.6.5.8 0 .6-.6.6-.8 0-.2-.7-.3-1 0-1z"/><path fill="%23252D26" d="M5.2 110.7H5l-.6.3c-.3.3-.6.4-.7.2h-.3c-.2.2-.3.2-.6 0-.2-.1-.2-.1-.4 0-.4.5-.8.1-.5-.4.1-.4.1-.5-.1-.3l-.7.4-.4.4H.7l-.2.3c-.1.3-.3.3-.5.2 0-.2.1-1 .3-1l.1-.2.2-.3c.2 0 .2-.2.2-.2l.4-.5 1.4-1c.3 0 .6-.3.7-.4.3-.4 1-.6 1.4-.7.7 0 1.5-.4 2.1-1 .3-.3.4-.5.3-.8-.1-.3-.3-.4-.6-.1-.2.1-.2.2-.3.1-.3-.2-.3-.3-.1-.7l.2-.6s-.2 0-.3.2l-.9.1c-.5.1-1 .3-1 .5l-.3.1c-.2 0-.4.2-.5.3-.3.2-.5.2-.6 0h-.2c0 .2-.2.2-.3 0 0-.1 0-.1 0 0-.3.3-.5.2-.6-.2 0 0 0-.2.4-.5l.4-.4s0-.2.2-.3l.1-.3c0-.2.7-.9.9-.9h.2c0-.1.2-.3.4-.3l.3-.3.3-.2.5-.4c.2-.2.3-.3.5-.3l.8-.6.4-.2s.2 0 .2-.2l.2-.1.2-.2c0-.2.3-.3.7-.4l1-.2c.2 0 .7-.3.7-.5 0 0 .7-.4 1-.4.2 0 .4 0 .4.2h.3l.1-.2v-.3l.2-.3c0-.2.7-.9.9-1l-.1-.1c-.2 0-.4-.2-.5-.3h-1.4c-.3.2-.4.2-.6 0-.2-.1-.5-.2-1 0-.5 0-.6 0-.6-.4s.4-.5 1.5-.6l1.3-.2.6-.2h.4c.2-.2.3-.2.5-.1h.2c.1 0 0-.4-.2-.6l-.3-.3v.2l-.3.3c-.3 0-.4 0-.4.3 0 .1-.1.2-.4.1-.4 0-.4 0-.5-.6l-.1-.4.3-.3.3-.4-.6-.3s-.2 0-.3-.2c-.2-.2-.3-.2-.6 0-.2.1-.3.1-.4 0-.1-.1-.1-.1-.4 0-.3.2-.4 0-.2-.4.1-.3.1-.3 0-.4v-.6c.2-.2 0-.5 0-.3l-.5.1c-.8.2-1.8.6-2 .8-.2.3-.5 0-.3-.5l.2-.2.4-.3.5-.2c.3 0 .6-.3.7-.5v-.2c0-.3 0-.7-.2-.7l-.1-.3c0-.1 0-.2.2-.3l.3-.3.2-.2.3-.1.1-.2.3-.1c.2 0 .3 0 .5-.2.1-.2.2-.2.1-.7 0-.5 0-.7.3-.6.2 0 .6-.3.6-.5v-.2a35.1 35.1 0 0 0-2.5 1c-.3 0-.3 0-.3-.2 0-.4.1-.6.4-.7.2 0 .4-.2.4-.3l-.1-.3-.4-.3H7c0 .1-.1.2-.2.1-.3 0-.4-.4 0-.4v-.1h.6l.6-.3h.2l.5-.2a28.7 28.7 0 0 0 1.1-.2l.3-.3c.2-.6.3-.8.8-.8l.8.1c.3.3.5.5.3.8h.1c.2-.1.3-.2.4-.1h.3l.8.4c.1.1.3.3.5.3.3 0 .3 0 .7-.3l.5-.3c.3 0 .6-.2.6-.3l.3-.6c.4-.3.7-.5.8-.3l.2.1s.3 0 .5.2c.4.2.7.2.8 0 .2-.6.2-.8.4-.8.2-.2.3-.4 0-.4 0 0-.2 0-.3.2H17.7l-.6-.2-.3-.4.6-.6h.2c0-.1-.1-.2-.5-.1-.7 0-.8 0-.8-.4 0-.3-.2-.4-.8-.4-.7 0-.7 0-.7-.3 0-.2 0-.2.3-.3l.3.1h.2v-.1c-.1 0 0-.1 0-.2.1-.2.2-.2.6-.1.6 0 1.6 0 1.6-.2l-.2-.2c-.2-.3-.2-.3-1-.2l-.8.1-.4.1-.7.1c-.7.2-.7.2-.8 0 0 0 0-.2.3-.5s.3-.4.3-.6c0-.3.3-.7.7-.7.3 0 .4-.1.4-.3l.2-.3V76c0-.1-.1-.1-.2 0h-.3l-.5.1c-.6.4-1 .2-.8-.2 0-.2.2-.3.3-.4l.2-.3c.1-.1.1-.1-.4-.2h-2.4v-.2l.1-.4.2-.3c0-.2.2-.3.3-.3l.3-.3c.1-.3.7-.5 1.1-.4a5.4 5.4 0 0 1 .3 0c.2-.1 1.1-.3 1.6-.2h1.1l1-.1 1 .2c.2.2.7.3.9.4l.7.2.4.1.4.1.5.1c.5 0 .8.3.5.6-.1 0-.2.1-.1.2 0 .3.4 0 .4-.3 0-.2 0-.3.3-.3l.4-.2c.1-.2-.2-.3-1-.3-1 0-1.2-.1-1.2-.5 0-.5.2-.6.8-.7.6 0 1.7.3 1.7.5l.1.2.1-.1.1-.5c.1-.2.2-.2.5-.2h.4c0-.2.1-.3.2-.2l.3-.1c0-.1.1-.1.2 0 .2.1.4 0 .6-.1.2-.3.2-.5 0-1 0-.3 0-.3-.4-.3h-1.4v-.5c0-.2.2-.4.3-.5.8-.5.6-.7-.8-.5l-.4-.1c-.2-.2-.7-.3-1.8-.4l-1-.2c-.3 0-.3-.1-.3-.3l.2-.4.2-.3c0-.2 0-.2-.7-.4-.6-.2-.7-.2-.7-.4s.1-.2.4-.4H21l1.3.2.7.1.8.1c.3 0 .4 0 .3-.1v-1c.1 0 .1 0 0-.1V65l-.1-.1v-.3c.2 0 .2 0 .2-.2 0-.3.6-.6 1-.5.2 0 .3 0 .2.2 0 .2 0 .2 0 0H28.2l.7.2.4.1c.2 0 .7.5.7.7 0 .1 0 .2.2.2.3 0 .3-.3 0-.4-.1 0-.2-.1-.1-.3l.1-.4-.2-.4-.3-.3s0-.2-.2-.3a11.8 11.8 0 0 0-.2-.2L29 63l-1-.5c-.8-.2-1-.3-1.3-.6l-.4-.3-.3-.3-.3-.2c-.1 0-.2 0-.2-.2 0-.1-.4-.4-.7-.4-.3 0-.4-.1-.5-.4l-.2-.3.2-.2c.3-.2.4-.2.8 0a243.7 243.7 0 0 0 3 1.3 3 3 0 0 0-.7-.4L27 60l-.3-.1-.2-.1-.4-.2c-.2 0-.4-.3-.2-.4l-.2-.3-.6-.5c-.3-.1-.4-.3-.4-.4l-.2-.4-1.2-1c-.3 0-.5-.2-.4-.6 0-.2 0-.3.2-.3.4-.1.8.1.8.5 0 .1 0 .2.2.2.1 0 .2.1.2.3.1.3.1.3.4.2l.2.1.2.2c.2 0 .2.2.2.3 0 .2 0 .2.2.2h.3l.2.2s.2 0 .2.2l.2.1.3.4c0 .3.2.5.2.5h.2c0 .2 0 .2.2.1 0 0 .3 0 .4.2h.2c.1 0 .2.1.1.2 0 .2 0 .2.3.2h.4l.4.3c.2 0 .4.2.4.3h.3l.2.2c.4.4.6.2.5-.5v-.6a34.2 34.2 0 0 0 0-5c-.2 0-.2 0 0-.2l.2-.2V52v-2.3-.6c-.2-.4-.2-.5 0-.6l-.1-.4c-.3-.2-.3-.4 0-.5l.1-.4c.2-.6.3-.7.7-.4.4.2.4.3.2.6l.1.4.3.2-.3.3c-.3.3-.3.3-.3.9l-.1.8v2.5l.1 3.1a26.3 26.3 0 0 0 0 6l.2-.1.2-.2s.3 0 .5-.2c.6-.3 1-.4 1.3-.4h.4l1.2-.4a6 6 0 0 0 1.6-.4l.4-.3c.2-.3.7-.5 1-.5.1 0 .2-.1.2-.3.1-.2.2-.2.4-.2s.3 0 .6-.3l.4-.2.2-.2c0-.4.7-.8 1-.6.3 0 .3.1.1.5-.1.4-.4.5-.8.5l-.3.3-.4.2s-.2 0-.2.2l-.2.2-.3.1c0 .1-.2.3-.5.4l-.6.5-.6.2-.3.3-.3.2a46.6 46.6 0 0 1-2 .7c0 .2-.2.2-.5 0h-.8c-.7.2-1.4.5-1.6 1l-.2 1v.6h1l.5-.3c.4-.2.5-.2.5-.5s0-.4.2-.4h.2c0-.2.3-.3.3-.1l.2.3.2.2v-.2c-.1-.2-.1-.2 0-.2h.1c0 .2 0 .2.3.1h.3l.2.1c.2 0 .3 0 .3.2l.3.3h.1c0 .2.3.3.6.2h.6c.4 0 .6.4.3.6h-.4c-.2-.1-.3 0-.4 0l-.2.3c-.2 0-.2.2 0 .2l.1.1h.3c.3-.3 1.2-.6 2-.7 0 0 .3 0 .3-.2h.7c.1-.2.4-.2.5 0 0 .1 0 .3-.2.4l-.2.2h.5c0 .2.1.2.3.2l.2.2c0 .4 0 .4-.7.5-.9 0-1.2 0-1.5.3-.1.1-.3.2-.4.1h-.2l-.2.2h-.4c-.1.2 0 .4.1.4.2 0 .3.2.1.3 0 .1-.2.2-.5.2-.6 0-1.8.1-2 .3l-.3.2c0 .2-.1.2-.2.2-.2 0-.3 0-.3.2-.1.1 0 .1 0 .2.4 0 .8 0 1.2-.2l.6-.2h.5l.4-.1c.4 0 1-.3 1-.5h.4l.5-.2c.2-.1.3-.2.4-.1h.3c0-.1.5-.3 1-.3.7-.2.8-.2.9 0h.3c.4 0 .6.1.5.4 0 .2 0 .2-.4.2-.3 0-.7.1-1 .3a14.6 14.6 0 0 1-1.2.4c-.1.1.4.3.8.3.5 0 1 .5 1 .9v.2h-.4a42.6 42.6 0 0 1-2.8-.4H38l.3.3c.4.3.4.5-.2.6-.4 0-.6.2-.5.4h.4c.4-.2.5-.2.8-.1.5 0 .7.4.4.6h-.3l-.3.2c-.3 0-.3 0-.2.4 0 .1.1.3 0 .4 0 .2 0 .2.7 0l2.7-.6.4.1h.3c.1-.2.5-.2.6 0l.2-.1c.1-.2.1-.2.3 0 .1.2.3.2.5 0v.2c-.1 0-.1 0 0 .2.2 0 .2 0 0 .2 0 .1-.2.3-.4.3-.3.2-.1.3.2.1l.7-.1h.3c0-.1.5-.3 1-.3l.9.1.1.1c.3 0 .1.6-.2.8l-.2.2h-.2v.1c0 .2 0 .3.4.4l.5.3c.2.2 1 .2 1 0h.3c.4 0 .6.4.5.7l-.4.2a1 1 0 0 0-.6.1V75.1c.2 0 .2.2.2.3 0 0 0 .2-.2.2v.3l.1.2c0 .1 0 .1.2 0 .2 0 1 0 1 .2 0 0 .1.1.2 0l.1.1h.3l.2.1.3.2c.2 0 .2 0 .2.2 0 0 0 .2-.2.3-.1.1-.1.1-.4 0l-.9-.1h-.5-.1v.4c0 .5-.2.6-.4.5l-1-.5-.7-.4-.2.2c-.1.2-.2.2-.5.1H44.7h-.3c-.6 0-.7.3-.2.6l.7.4.6.3c.4 0 .7.2.8.4h.7a48.3 48.3 0 0 1 3.4.2c0 .1.1.1.2 0 .3-.2.4-.2.6.1.1.3.1.3.2.1 0-.2.2-.2.3-.1h.3l.4.1.2.1c.4 0 .5.4.2.6-.1.1-.4.1-.4 0h-.8c-.1-.2-.2-.2-.4 0H50c-1-.2-2.1-.2-2.2 0l.1.4 1 .5.3.3c.3.3.2.5 0 .4a44.5 44.5 0 0 0-3.5-.7c-.6-.2-.7-.2-.7 0l.5.3c.2.2.3.3.3.5 0 .3-.3.4-.6.1a.9.9 0 0 0-.5-.1h-.2c0-.2-.4-.4-.6-.4l-.2.2-.1.3c-.3.1-.1.4.4.7a2.4 2.4 0 0 1 .5.3l.2.3c.1.3.2.4.5.4.7.2 1.3.2 1.6.1h.4a20.3 20.3 0 0 0 1.7-.3c.6-.2 1.1 0 1.1.5 0 .1-.5.4-.9.4a6 6 0 0 0-1 .2l-.8.1-.6.1-.8.3h-.4v.5c.1.2 0 .4 0 .4-.1.2 0 .2.4.2s.5 0 .5-.2c0-.3.5-.6.7-.4h.9l.2.2s.3 0 .5.2c.3.2.4.2.6 0l.4-.1h.7c.6.3.7.5.9.8l.3.2a7.4 7.4 0 0 1 1 .5l.6.2c.3 0 .4.1.4.2s0 .2.2.2c.1 0 .2.1.2.3 0 .2 0 .3.2.1 0-.1.2-.1.2 0s.1.2.3.2c.2 0 .4.1.7.4.4.4.4.6.3.9-.2.2-.5.2-.5 0a6.7 6.7 0 0 0-3-1.4l-.4-.2-.5-.2h-.1v.1l.4.2.4.3.2.2.3.3c.3.1.3.1.3.5l.1.4c.2 0 .3 0 .1.1-.1.1 0 .4.3.4 0 0 .2 0 .3.2l.2.3c.1.1.2.2.1.4 0 .3-.2.3-.7-.2-.4-.3-.5-.3-.7-.3l-.2-.1v-.1c-.2 0-.2.1 0 .4v.3l.2.4.4.3.2.2c.2 0 .2.2.3.8 0 .6 0 .6.2.7.2 0 .3 0 .3.3l.3.4c.2.3.1.6-.1.6s-.3 0-.7-.4c-.2-.3-.4-.4-.5-.4l-.2.1c-.2 0-.2 0-.3-.2v-.2L52 94c0-.1-.1-.1-.1 0 0 .2-1.5.4-1.7.2h-1c-.1 0-.1-.1 0-.2 0-.1-.3-.3-.5-.3h-.3c0-.2-.3-.2-.4 0 0 .2-.2.3-.3.3-.2 0-.3.2 0 .3h.7l.6.2h.8l.2.2h.3c.2-.2.3-.2.4 0 .1 0 .6.1.8 0 0-.1 0-.1.2 0 0 .1.1.2.2 0 .2 0 .6.1.6.3l.2.3c.1.1.1.3 0 .4h-.4c-.4-.2-.7 0-.7.2l-.3.3-.4-.2c-.3-.2-.5-.2-.5 0 0 0-.1.2-.3.2H50c-.3 0-.4-.3-.3-.5v-.3c0-.2 0-.2-.1 0v.1c-.1.4.2 1 .7 1 .4.2 1.1.6 1.2.8l.2.5c0 .2.2.3.5.5l.6.4 1 .4c.2 0 .4 0 .6.2l.4.3.2.1h.3c.2 0 .2 0 .3.2l.2.1c.3 0 .5.2.6.5l-.2.4c-.2.1-.3.3-.3.4 0 .2 0 .2.7.2.4 0 .6.2.9.9 0 .2.2.3.5.3l.5.2c.2.3.2.3 0 .6v.3H58c-.4-.1-.5-.1-.4 0l.2.3c.2 0 .2.1.1.2v.8l.4-.1c.2-.1.4-.2.7-.1.3 0 .5.1.9.5l.6.5c.2 0 1.2 1 1.2 1.2h.1l.3.3c0 .2.1.3.3.3l.3.1h.2l.1.1.2.2c.2 0 .4 0 .7.3.3.3.3.7 0 .7l-.1-.1c-.1-.2-1.4-.5-1.4-.4H62c-.5 0-.4.2 0 .4l.3.3.2.2.1.4c0 .3-.2.4-.5.2-.1 0-.2 0-.2.2 0 .3-.2.3-.6.2-.3-.2-.4-.2-.5-.1h-.3l-.2.2c0 .1-.2.2-.3.1l-.2.2c0 .2-.4.2-.6 0H59v.3c-.1.3 0 .5.1.5.2 0 1.3.9 1.4 1.1 0 .2 0 .2.2.2.3 0 .5.3.5.5s.1.3.2.3l.3.3c0 .3-.2.3-.5 0h-.5l-.3.2-.2-.2c-.2-.1-.4-.1-.4 0 0 .4-.2.4-.6 0l-.4-.5s-.2.1-.2.3l-.3.3c-.3 0-.3.2 0 .3.4.2.5.7.3 1v.5l.2.1.2.2.3.3c0 .3.2.4.3.1 0-.1.3-.2.3 0h.3l.4.3.6.2.4.2.2.2.1.2v.2c.2 0 .2.5.1.7l-.3.2c-.3 0-.4 0-.6.4l-.4.4.4.1.7.3c.4.2.4.2.4.4l-.1.5-.3.3h-.1-.3c-.4 0-.5 0-.6-.2l-.2.1c-.2.2-.2.2-.3 0l-.4-.1-.2-.2-.2-.2c-.3 0-.3 0-.3.3l-.1.2v.2c.1.2.2.7 0 .8v.2c0 .1-.3.2-.4 0l-.2-.2h-.2c0-.1 0-.2-.2-.2H58c0-.2 0-.2-.2-.2h-.2c0-.1-.1-.3-.4-.5H57v.4c-.2.2-.2.2-.5 0h-1.1a.8.8 0 0 0-.3-.2c-.1 0-.2 0-.2-.2s0-.3-.2-.4c-.2-.1-.3-.3-.3-.4l-.1-.1-.2-.2c0-.1-.3-.6-.5-.6v-.1c0-.2-.3-.5-.5-.4v1.6c-.3.2-.2.3.1.4l.5.2.2.1c.2 0 .3.3.3.5v.1c.2 0 .4.3.4.6s-.1.4-.2.3l-.3-.1h-.3c-.1-.1-.2-.1-.4 0h-.3c-.1-.1-.1 0-.1 0 0 .3-.2.5-.3.5l-.2.2h-.1l-.7-.2-.2-.2c-.1 0-.2-.1-.1-.2.1-.3.1-.5 0-.4-.2 0-.6-.3-.6-.4h-.1c0 .2 0 .2-.3.2l-.1-.5c0-.4 0-.4.2-.4s.3 0 .3-.2.1-.3.2-.3l.2-.2h-.6l-.4.2c-.4 0-.8-.2-.8-.4s0-.2-.3 0h-.5a.5.5 0 0 1-.3-.4c0-.2-.2-.2-.6 0-.3 0-.4.1-.2.3v.3c-.1.1-.1.2 0 .2 0 .2 0 .4-.2.4H47 46.4c-.2.2-.4.1-.4-.2l-.1-.3s-.1-.1 0-.2l-.2-.1v-.2c0-.1 0-.2-.2-.2l-.1-.2-.1-.2c-.2 0-.4.2-.4.3l-.2.1-.2.2c-.1.1-.2.2-.4.1l-.4-.1-.3-.1a.4.4 0 0 1-.3-.2c0-.1-.1-.2-.2-.1 0 0-.2 0-.3-.2 0-.2-.1-.2-.4 0h-.7c-.3 0-.3 0-.2.2l.2.3v.5l-.1.2-.2.1v.7l.2-.1h.1v.4h-.4l-.5.2h-.3l-.3.1c-.3.2-.4.2-.4 0v-.3c-.2 0-.2-.2 0-.3.2-.2.2-.4 0-.4v-.1h-.4c-.3 0-.3 0-.1-.3.1-.3 0-.5-.1-.3-.1.1-.4.1-.4 0l-.3-.1H38h-.2l-.2.1c0 .1 0 .2-.3.2h-.4c0-.1-.1-.2-.3-.2h-.2l-.1.6c-.1.3-.2.3-.3.3-.2 0-.3 0-.3.2-.1.1-.2.2-.5.2h-.4s-.1.2-.3.2l-.6.3-.2.1-.1.2v.5c0 1-.2 1.3-1.2 1.3a8 8 0 0 1-1 0c-1.3-.1-1.3-.1-1.3-1.2v-1c-.2-.3-.5-.3-.7-.1-.1.2-.3.2-.4 0h-.3c-.6.3-.8 0-.3-.4l.7-.6.5-.4c.3-.2.3-.5.1-.5-.2-.1-1 .1-1.1.3l-.1.4c0 .3 0 .4-.2.6-.3.3-.6.3-.7 0-.1-.2-.3-.3-.3-.2l-.4.5c-.4.4-.6.4-.6 0l-.2-.1-.1-.2c0-.2 0-.2-.2-.2h-.5c-.2-.2-.2-.2-.3 0l-.1.2-.8.2-.6-.1-.2-.2-.1-.1v-.3c.2 0 .2-.2.2-.3v-.4c.2-.2.2-.4.2-.5v-.6l-.1-.5c-.3-.3-.3-.3-.1-.6.1-.3.1-.3 0-.1l-.3.1-.6.3s0 .2-.2.2v.3c0 .2-.2.2-.3 0-.1-.2-.2-.1 0 .2l.1.3.1.3.1.6c.1.1 0 .1-.1.2l-.3.1-.1.1c0 .2-.5.2-.6 0H21c0 .2-.2.2-.2 0 .2 0 .2-.1.2-.2h-.2l-.4.2h-.1l-.2.3c-.1.2-.2.2-.3.1h-.3l-.1.3-.2.1-.2.1c-.2.1-.3 0-.3-.2 0-.1 0-.2-.2-.3-.2 0-.3 0-.3-.3l-.1-.3-.3-.1c0-.2-.1-.2-.4-.3l-.4-.2s0-.2-.2-.3h-.1-.1-.1l-.1.3.3.6c.2.2.3.6.2.6l-.1.3-.1.1h-.8c0-.1-.1-.1-.2 0h-.3c-.1-.1-.2-.1-.2 0 0 .2 0 .3-.2.4l-.3.2c-.1.1-.4.1-.4 0s-.5-.2-.7 0h-.2l-.4-.1c-.2 0-.3 0-.5-.3-.2-.2-.2-.3-.2-.5.1-.3 0-.4-.2-.4v.6l-.1.1c-.2 0-.3.3-.2.4 0 .2 0 .3-.4.2h-.2l-.2.2-.3.1c-.1.2-.2.2-.4.2h-.2c0 .2-.2 0-.3-.2-.1-.3-.1-.3-.1.1 0 .5-.2.6-.3.2l-.1-.2v.2c-.1.3-.3.5-.6.5v-.4l.1-.4c.2 0 .2 0 .2-.2 0 0 0-.2.2-.3v-.2l.3-.2.5-.5.2-.4h-.5c0-.1-.2-.1-.4 0l-.7-.1-.5-.4c-.1-.1-.2-.1-.2 0l.1.3c0 .1 0 .1-.2 0-.2 0-.5.1-.6.3 0 .2-.2.2-.3 0 0-.2.2-.5.6-.8.3-.1.4-.3.4-.4 0-.2 0-.2.2-.2h.2v-.2H8l.2-.1.1-.2.2-.1.2-.2.3-.5.2-.5c0-.3 0-.3.6-.7l.7-.5c.1-.1.1-.1-.2-.2a.6.6 0 0 1-.4-.3l-.3-.3c-.2-.2-.2-.2-.2 0 0 .1-.1.2-.3.2H9v.1l-.3.1c0 .3-.2.2-.4-.2s-.2-.4 0-.5l.2-.1s0-.1 0 0h-.7c-.5 0-.5 0-.6.2 0 .1 0 .2-.1.1-.1 0-.2 0-.3.2-.2.2-.2.2-.4.1-.3-.1-.2-.6.2-.9l.5-.4.5-.4.4-.2c.2-.3.8-.6 1-.6l.4-.5c0-.3 0-.3-.3-.1h-.6l-.3-.2v-.2c0-.3-.3-.7-.4-.5h-.4a2 2 0 0 0-.5 0l-.2-.1-.1.1c-.2.3-.4.3-.7.2-.4-.2-.5-.3-.5-.9v-.1l-.1-.3zm53 4.8v.4l.2-.1v-.2l-.1-.1zM53 99.9l-.2.2c-.3.5-.2.6.3.7h.9c.3 0 .3 0 .3-.2l-.2-.1-.3-.2h-.5c-.1.2-.3.2-.2 0l-.1-.4zm-9.8-20.4c-.2.2-.2.4 0 .4v-.3zM15.7 93.4v.3c-.2.3-.3.4-.4.2-.2-.2-.4 0-.6.2l-.3.3-.1.3c0 .2 0 .3-.2.4-.2 0-.2.1 0 .3.1.2.2.1.7-.1.3-.2.6-.2.9-.2l.5-.1c0-.1.2-.2.6-.1.5 0 .6 0 .8-.3l.6-.4h.3l-.1-.4-.1-.5c0-.2 0-.3-.2-.3l-.2.1h-.4c-.2 0-.3.2-.5.3l-.3.2-.1.2c-.2.4-.7.3-.8-.2v-.2zM26 65.1h-.3c-.1 0-.2 0-.2.3v.3l-.1.3c0 .2 0 .4-.2.5l-.1.5c0 .1 0 .2.2.2l.3-.1c.2 0 .2-.2.2-.3-.1-.2.4-.7.7-.8.3 0 .4 0 .6.2.2.2.3.2.6.2h1.7l-.5-.3-.7-.5a1 1 0 0 0-.4-.2l-.7-.2h-.6l-.3-.1H26zm-6.3 55.5l-.1-.1v.1zm16.4-.4v-.1c.2-.2 0-.6-.4-.6-.3 0-.4 0-.2.4 0 .1 0 .2.2.2h.2l.2.2zm-25-4c0-.2-.1-.2-.2-.2v.2h.1zm46.8-2.1l-.2-.2c-.2 0-.2.1 0 .3l.2-.1zm-4.5-26.2h-.2.1zm-13.2-2.7c.6-.1.6 0 .2-.3-.2-.2-.5-.3-.8-.3l-1.2-.1h-.2l.7.4.7.3.2.1h.4zm1.8-.4l.2-.3-.1-.2a147 147 0 0 1-.7 0c-.4.6 0 1 .6.5zm-4.4-3.5l.4-.4-.7.1c0 .2-.2.2-.3 0 0-.2-.1-.2-.4 0l-.2.1.3.3.4.2.5-.3zm4.8-1c.3 0 .3-.1 0-.3v-.3l-.4-.1c-.1 0-.3 0-.3-.2-.2 0-.4-.1-.4 0l-.3.2h-.5c-.3-.3-.5-.3-.7 0-.3.1-.3.2 0 .4h.7l.8.3c.6.2.8.2 1.1 0zm-18.6-.2c1 0 1.2-.2.7-.2l-.4-.2c-.1-.3-.4-.3-.5 0l-.6.1c-.5 0-.6.1-.6.2 0 .3.1.3.3.3l1.1-.2zm1.7.1s-.1-.2-.2-.1v.1c.2.1.2.1.2 0zm-.9-5.4l.2-.3-.3-.1c-.4 0-.5 0-.3.3.2.2.2.2.4 0zm-.2-1.3c.1-.3.1-.3 0-.4-.2 0-.3 0-.3.2 0 .3.2.4.3.2zm.8-.4l-.3.1h.2l.1-.1zm5.1-4.5v-.4h-1c-.1-.1-.2-.1-.4 0-.1 0-.1 0 0 .1l.3.1c.1 0 .4 0 .6.2.5.2.5.2.5 0zm1.9-3.4l-.1-.1H32v.2l.2-.1zm18.2 56.3l.1.1v-.2.1zM35.6 66c-2.3 1.1 1-2.6 0 0zm-5-2.9c-1 1 .2-1.3 0 0z"/>
</g>
</svg>
